HIERARCHY
ROOT hip
{
  OFFSET 0 0 0
  CHANNELS 6 Xposition Yposition Zposition Zrotation Yrotation Xrotation
  JOINT abdomen
  {
    OFFSET 0 20.6881 -0.73152
    CHANNELS 3 Zrotation Xrotation Yrotation
    JOINT chest
    {
      OFFSET 0 11.7043 -0.48768
      CHANNELS 3 Zrotation Xrotation Yrotation
      JOINT neck
      {
        OFFSET 0 22.1894 -2.19456
        CHANNELS 3 Zrotation Xrotation Yrotation
        JOINT head
        {
          OFFSET -0.24384 7.07133 1.2192
          CHANNELS 3 Zrotation Xrotation Yrotation
          JOINT leftEye
          {
            OFFSET 4.14528 8.04674 8.04672
            CHANNELS 3 Zrotation Xrotation Yrotation
            End Site
            {
              OFFSET 1 0 0
            }
          }
          JOINT rightEye
          {
            OFFSET -3.6576 8.04674 8.04672
            CHANNELS 3 Zrotation Xrotation Yrotation
            End Site
            {
              OFFSET 1 0 0
            }
          }
        }
      }
      JOINT rCollar
      {
        OFFSET -2.68224 19.2634 -4.8768
        CHANNELS 3 Zrotation Xrotation Yrotation
        JOINT rShldr
        {
          OFFSET -8.77824 -1.95073 1.46304
          CHANNELS 3 Zrotation Xrotation Yrotation
          JOINT rForeArm
          {
            OFFSET -28.1742 -1.7115 0.48768
            CHANNELS 3 Zrotation Xrotation Yrotation
            JOINT rHand
            {
              OFFSET -22.5879 0.773209 7.07136
              CHANNELS 3 Zrotation Xrotation Yrotation
              JOINT rThumb1
              {
                OFFSET -1.2192 -0.487915 3.41376
                CHANNELS 3 Zrotation Xrotation Yrotation
                JOINT rThumb2
                {
                  OFFSET -3.37035 -0.52449 3.41376
                  CHANNELS 3 Zrotation Xrotation Yrotation
                  End Site
                  {
                    OFFSET -1.78271 -1.18214 1.43049
                  }
                }
              }
              JOINT rIndex1
              {
                OFFSET -7.75947 0.938293 5.60832
                CHANNELS 3 Zrotation Xrotation Yrotation
                JOINT rIndex2
                {
                  OFFSET -2.54057 -0.884171 1.56538
                  CHANNELS 3 Zrotation Xrotation Yrotation
                  End Site
                  {
                    OFFSET -1.62519 -0.234802 1.16502
                  }
                }
              }
              JOINT rMid1
              {
                OFFSET -8.24714 1.18213 3.41376
                CHANNELS 3 Zrotation Xrotation Yrotation
                JOINT rMid2
                {
                  OFFSET -3.10165 -0.590103 1.0647
                  CHANNELS 3 Zrotation Xrotation Yrotation
                  End Site
                  {
                    OFFSET -2.48547 -0.328903 0.83742
                  }
                }
              }
              JOINT rRing1
              {
                OFFSET -8.82822 0.546677 1.51678
                CHANNELS 3 Zrotation Xrotation Yrotation
                JOINT rRing2
                {
                  OFFSET -2.60934 -0.819778 -0.0198488
                  CHANNELS 3 Zrotation Xrotation Yrotation
                  End Site
                  {
                    OFFSET -2.33842 -0.294052 0.168128
                  }
                }
              }
              JOINT rPinky1
              {
                OFFSET -8.27202 -0.0477905 -0.4584
                CHANNELS 3 Zrotation Xrotation Yrotation
                JOINT rPinky2
                {
                  OFFSET -1.82734 -0.647385 -0.700984
                  CHANNELS 3 Zrotation Xrotation Yrotation
                  End Site
                  {
                    OFFSET -1.69225 -0.51767 -0.607171
                  }
                }
              }
            }
          }
        }
      }
      JOINT lCollar
      {
        OFFSET 2.68224 19.2634 -4.8768
        CHANNELS 3 Zrotation Xrotation Yrotation
        JOINT lShldr
        {
          OFFSET 8.77824 -1.95073 1.46304
          CHANNELS 3 Zrotation Xrotation Yrotation
          JOINT lForeArm
          {
            OFFSET 28.1742 -1.7115 0.48768
            CHANNELS 3 Zrotation Xrotation Yrotation
            JOINT lHand
            {
              OFFSET 22.5879 0.773209 7.07136
              CHANNELS 3 Zrotation Xrotation Yrotation
              JOINT lThumb1
              {
                OFFSET 1.2192 -0.487915 3.41376
                CHANNELS 3 Zrotation Xrotation Yrotation
                JOINT lThumb2
                {
                  OFFSET 3.37035 -0.52449 3.41376
                  CHANNELS 3 Zrotation Xrotation Yrotation
                  End Site
                  {
                    OFFSET 1.78271 -1.18214 1.43049
                  }
                }
              }
              JOINT lIndex1
              {
                OFFSET 7.75947 0.938293 5.60832
                CHANNELS 3 Zrotation Xrotation Yrotation
                JOINT lIndex2
                {
                  OFFSET 2.54057 -0.884171 1.56538
                  CHANNELS 3 Zrotation Xrotation Yrotation
                  End Site
                  {
                    OFFSET 1.62519 -0.234802 1.16502
                  }
                }
              }
              JOINT lMid1
              {
                OFFSET 8.24714 1.18213 3.41376
                CHANNELS 3 Zrotation Xrotation Yrotation
                JOINT lMid2
                {
                  OFFSET 3.10165 -0.590103 1.0647
                  CHANNELS 3 Zrotation Xrotation Yrotation
                  End Site
                  {
                    OFFSET 2.48547 -0.328903 0.83742
                  }
                }
              }
              JOINT lRing1
              {
                OFFSET 8.82822 0.546677 1.51678
                CHANNELS 3 Zrotation Xrotation Yrotation
                JOINT lRing2
                {
                  OFFSET 2.60934 -0.819778 -0.0198488
                  CHANNELS 3 Zrotation Xrotation Yrotation
                  End Site
                  {
                    OFFSET 2.33842 -0.294052 0.168128
                  }
                }
              }
              JOINT lPinky1
              {
                OFFSET 8.27202 -0.0477905 -0.4584
                CHANNELS 3 Zrotation Xrotation Yrotation
                JOINT lPinky2
                {
                  OFFSET 1.82734 -0.647385 -0.700984
                  CHANNELS 3 Zrotation Xrotation Yrotation
                  End Site
                  {
                    OFFSET 1.69225 -0.51767 -0.607171
                  }
                }
              }
            }
          }
        }
      }
    }
  }
  JOINT rButtock
  {
    OFFSET -8.77824 4.35084 1.2192
    CHANNELS 3 Zrotation Xrotation Yrotation
    JOINT rThigh
    {
      OFFSET 0 -1.70687 -2.19456
      CHANNELS 3 Zrotation Xrotation Yrotation
      JOINT rShin
      {
        OFFSET 0 -36.8199 0.73152
        CHANNELS 3 Zrotation Xrotation Yrotation
        JOINT rFoot
        {
          OFFSET 0.73152 -45.1104 -5.12064
          CHANNELS 3 Zrotation Xrotation Yrotation
          End Site
          {
            OFFSET -1.1221 -3.69964 12.103
          }
        }
      }
    }
  }
  JOINT lButtock
  {
    OFFSET 8.77824 4.35084 1.2192
    CHANNELS 3 Zrotation Xrotation Yrotation
    JOINT lThigh
    {
      OFFSET 0 -1.70687 -2.19456
      CHANNELS 3 Zrotation Xrotation Yrotation
      JOINT lShin
      {
        OFFSET 0 -36.8199 0.73152
        CHANNELS 3 Zrotation Xrotation Yrotation
        JOINT lFoot
        {
          OFFSET -0.73152 -45.1104 -5.12064
          CHANNELS 3 Zrotation Xrotation Yrotation
          End Site
          {
            OFFSET 1.1221 -3.69964 12.103
          }
        }
      }
    }
  }
}
MOTION
Frames:	4
Frame Time:	0.00833333
175.656 83.185 -86.5162 0.0 0.0 0.0 -3.13122 0.00208551 -0.0845035 -0.863234 0.0181967 -0.149332 -1.33037e-15 7.95139e-16 -1.98785e-16 -3.10912e-15 9.54166e-15 -6.02566e-16 -0.0 0.0 0.0 -0.0 0.0 0.0 -2.99599e-16 -1.47535e-17 1.98785e-16 -1.07617e-14 -2.73329e-16 -1.19271e-15 -1.96697e-13 5.64548e-14 -6.36111e-15 -2.25444e-12 -8.33902e-14 -3.53042e-13 -5.31693e-12 -5.86105e-14 -7.56972e-13 -9.19856e-12 -1.01778e-13 -1.31595e-12 -5.31431e-12 -6.0033e-14 -7.60153e-13 7.73091 5.47488 0.417314 -5.31754e-12 -5.86415e-14 -7.56972e-13 2.90554 0.965183 0.102902 -5.31243e-12 -5.85421e-14 -7.56972e-13 10.2786 0.731801 0.0259123 -5.31868e-12 -5.64548e-14 -7.4743e-13 2.22167 -0.733487 -0.20892 -5.94981e-16 -1.14534e-17 -1.98785e-16 -1.30965e-14 -8.69683e-17 -2.18663e-15 -1.99828e-13 -6.55989e-14 -4.13472e-14 -2.296e-12 3.49613e-14 -2.98972e-13 -5.40283e-12 -6.87609e-14 -7.53791e-13 -9.31386e-12 -1.20861e-13 -1.308e-12 -5.40575e-12 -7.07673e-14 -7.4425e-13 -7.73091 5.47488 -0.417314 -5.40158e-12 -6.94752e-14 -7.53791e-13 -2.90554 0.965183 -0.102902 -5.40941e-12 -6.87795e-14 -7.55382e-13 -10.2786 0.731801 -0.0259123 -5.39859e-12 -6.63941e-14 -7.63333e-13 -2.22167 -0.733487 0.20892 -2.03217e-16 0.0 -3.88251e-19 -1.91848 -1.93503 0.0146195 -0.00850287 -2.07867 -0.069781 -0.458982 4.0001 0.132506 2.03217e-16 0.0 3.88251e-19 -2.83791 -9.32629 0.322331 -0.00902688 11.308 -0.235098 0.527022 -1.99512 -0.0183287
170.173 82.4544 -86.9331 -1.8445 -42.5417 -2.8992 -4.22099 2.79737 -0.527341 0.412494 1.48731 -0.411156 -4.04265 9.14884 -5.00878 14.222 -15.5273 -5.28253 -0.0 0.0 0.0 -0.0 0.0 0.0 -2.46684e-14 1.87684e-14 9.63314e-14 23.0827 2.77399 2.82169 -4.04673 -1.80557 6.35606 0.0164863 2.84947 0.398681 -9.41896e-10 1.21375e-09 4.83845e-10 -1.62391e-09 2.10241e-09 8.47581e-10 -9.41893e-10 1.21375e-09 4.83843e-10 7.73091 5.47488 0.417314 -9.41895e-10 1.21375e-09 4.83846e-10 2.90554 0.965183 0.102902 -9.41889e-10 1.21375e-09 4.83846e-10 10.2786 0.731801 0.0259123 -9.41898e-10 1.21375e-09 4.83854e-10 2.22167 -0.733487 -0.20892 -2.4857e-14 1.87707e-14 9.59893e-14 -24.319 4.59891 -1.55018 3.38401 -1.4021 -5.42351 -0.000653838 -0.568337 0.0798605 -2.73863e-10 1.25082e-09 4.31981e-10 -4.7571e-10 2.1665e-09 7.48644e-10 -2.73866e-10 1.25082e-09 4.3199e-10 -7.73091 5.47488 -0.417314 -2.73864e-10 1.25082e-09 4.31981e-10 -2.90554 0.965183 -0.102902 -2.7387e-10 1.25082e-09 4.31981e-10 -10.2786 0.731801 -0.0259123 -2.7386e-10 1.25083e-09 4.31973e-10 -2.22167 -0.733487 0.20892 -2.03217e-16 0.0 -3.88251e-19 -3.95105 -6.55582 -0.117463 0.0210726 7.69602 0.110587 -1.07619 1.15638 -5.73532 2.03217e-16 0.0 3.88251e-19 -1.67846 -7.04699 1.73382 -0.0689424 17.2275 -0.438553 1.6242 -8.05028 5.27313
170.18 82.3971 -86.9175 -1.7528 -42.5295 -2.997 -5.32205 5.74599 -0.999318 1.77371 3.04271 -0.688456 -6.50361 18.5995 -10.7419 25.7034 -31.4942 -12.2959 -0.0 0.0 0.0 -0.0 0.0 0.0 -4.96915e-14 3.76139e-14 1.92958e-13 47.1869 5.67911 5.8177 -7.89407 -3.64165 13.0987 -0.00943795 5.86858 0.824457 -1.92552e-09 2.48663e-09 1.02792e-09 -3.31945e-09 4.30723e-09 1.79993e-09 -1.92552e-09 2.48663e-09 1.02792e-09 7.73091 5.47488 0.417314 -1.92552e-09 2.48663e-09 1.02793e-09 2.90554 0.965183 0.102902 -1.92552e-09 2.48663e-09 1.02793e-09 10.2786 0.731801 0.0259123 -1.92553e-09 2.48663e-09 1.02793e-09 2.22167 -0.733487 -0.20892 -4.97662e-14 3.76152e-14 1.92675e-13 -49.7586 9.43402 -3.21841 6.67212 -2.84116 -11.164 0.000377132 -1.16499 0.163726 -5.47196e-10 2.56944e-09 8.56941e-10 -9.50666e-10 4.45045e-09 1.48524e-09 -5.47198e-10 2.56944e-09 8.56949e-10 -7.73091 5.47488 -0.417314 -5.47198e-10 2.56944e-09 8.5694e-10 -2.90554 0.965183 -0.102902 -5.47202e-10 2.56944e-09 8.56941e-10 -10.2786 0.731801 -0.0259123 -5.47193e-10 2.56944e-09 8.56934e-10 -2.22167 -0.733487 0.20892 -2.03217e-16 0.0 -3.88251e-19 -6.11543 -11.4366 -0.232475 -0.0172228 18.0233 0.314588 -2.36165 -1.79866 -11.9655 2.03217e-16 0.0 3.88251e-19 -0.578439 -4.63528 3.2076 -0.0822488 23.4793 -0.673657 4.03287 -14.2533 11.1249
170.208 82.3452 -86.9017 -1.5392 -42.5161 -3.1329 -6.26968 8.38574 -1.42638 3.00434 4.42507 -0.937181 -6.91539 26.5581 -16.6327 31.2702 -44.6605 -21.7289 -0.0 0.0 0.0 -0.0 0.0 0.0 -7.34061e-14 5.63347e-14 2.88597e-13 68.4245 8.24085 8.54401 -10.959 -5.1506 19.1389 -0.070634 8.54675 1.20798 -2.81505e-09 3.64137e-09 1.45305e-09 -4.85333e-09 6.30745e-09 2.54537e-09 -2.81505e-09 3.64137e-09 1.45305e-09 7.73091 5.47488 0.417314 -2.81505e-09 3.64137e-09 1.45305e-09 2.90554 0.965183 0.102902 -2.81504e-09 3.64137e-09 1.45305e-09 10.2786 0.731801 0.0259123 -2.81506e-09 3.64137e-09 1.45306e-09 2.22167 -0.733487 -0.20892 -7.3381e-14 5.63351e-14 2.88365e-13 -72.1925 13.7557 -4.77276 9.36593 -4.05579 -16.3076 0.00279325 -1.705 0.239676 -8.10784e-10 3.75261e-09 1.29745e-09 -1.4085e-09 6.49973e-09 2.24855e-09 -8.10786e-10 3.75261e-09 1.29746e-09 -7.73091 5.47488 -0.417314 -8.10788e-10 3.75261e-09 1.29745e-09 -2.90554 0.965183 -0.102902 -8.10791e-10 3.75261e-09 1.29745e-09 -10.2786 0.731801 -0.0259123 -8.10782e-10 3.75261e-09 1.29745e-09 -2.22167 -0.733487 0.20892 -2.03217e-16 0.0 -3.88251e-19 -8.08229 -15.7971 -0.394194 -0.12152 27.2445 0.526673 -4.03485 -4.30511 -17.5178 2.03217e-16 0.0 3.88251e-19 0.303806 -2.48987 4.5303 -0.0440401 29.0647 -0.910192 7.30019 -19.4748 16.6794
